# xmcd
#
# Track frame offsets:
#	150
#	17977
#	39263
#	51483
#	72976
#	95626
#	113666
#	128300
#	147982
#	166288
#	182035
#	205102
#
# Disc length: 2906 seconds
#
# Revision: 1
# Processed by: cddbd v1.5.2PL0 Copyright (c) Steve Scherf et al.
# Submitted via: audiograbber 1.83.01
#
DISCID=a40b580c
DTITLE=torsten ruland - Blue Moon
DYEAR=1999
DGENRE=Blues
TTITLE0=blue moon
TTITLE1=tief in der stille
TTITLE2=go, go, go
TTITLE3=wie beim ersten mal
TTITLE4=wave - klaus
TTITLE5=du - lou
TTITLE6=water line
TTITLE7=bass beat one
TTITLE8=zerbrechlich
TTITLE9=nightline
TTITLE10=radio fact
TTITLE11=station
EXTD=text, music, arrangement and recording by torsten ruland\nVoices, guitar a
EXTD=nd keyboards - torsten ruland\nguitar for "wave-klaus" - klaus backhaus
EXTT0=
EXTT1=
EXTT2=
EXTT3=
EXTT4=
EXTT5=
EXTT6=
EXTT7=
EXTT8=
EXTT9=
EXTT10=
EXTT11=
PLAYORDER=
